<?xml version="1.0" encoding="UTF-8"?>
<svg id="Layer_1" data-name="Layer 1" xmlns="http://www.w3.org/2000/svg" viewBox="0 0 76.68 89.92">
  <defs>
    <style>
      .cls-1 {
        fill: #ff6200;
      }

      .cls-2 {
        fill: #dfbefc;
      }
    </style>
  </defs>
  <circle class="cls-2" cx="36.62" cy="33.32" r="29.8"/>
  <path class="cls-1" d="M39.3,10.52c15.06,1.19,26.3,14.36,25.11,29.42-.25,3.2-1.05,6.23-2.29,9.01,3.05-4.38,5.01-9.6,5.46-15.31C68.93,16.47,56.12,1.45,38.95,.1,21.78-1.26,6.77,11.56,5.41,28.73c-.76,9.67,2.97,18.65,9.44,24.9-3.59-5.05-5.5-11.33-4.97-17.99,1.19-15.06,14.36-26.3,29.42-25.11Z"/>
  <g>
    <path class="cls-1" d="M44.12,15.16c.53,.21,1.08,.36,1.56,.7,1.19,.84,1.96,2,2.53,3.3,.85,1.96,1.06,4.04,.91,6.14-.13,1.84-.6,3.61-1.61,5.18-.66,1.04-1.48,1.93-2.66,2.4-1.43,.57-2.76,.34-3.98-.55-1.3-.96-2.06-2.3-2.6-3.79-.63-1.72-.84-3.51-.71-5.32,.16-2.2,.72-4.31,2.12-6.08,.72-.9,1.57-1.63,2.74-1.9,.05-.01,.09-.05,.14-.08,.52,0,1.04,0,1.56,0Z"/>
    <path class="cls-1" d="M30.72,15.16c.84,.28,1.62,.67,2.27,1.31,.95,.93,1.56,2.06,2.01,3.29,.62,1.7,.83,3.48,.72,5.27-.12,1.98-.62,3.88-1.71,5.57-.7,1.09-1.59,1.99-2.87,2.39-1.53,.47-2.88,.11-4.05-.95-1.68-1.53-2.43-3.5-2.79-5.69-.18-1.08-.2-2.15-.14-3.23,.14-2.17,.74-4.21,2.09-5.97,.75-.97,1.71-1.66,2.91-1.99h1.56Z"/>
    <path class="cls-1" d="M46.42,57.24c-1.54,.16-2.93-.31-4.22-1.06-.8-.47-1.6-.89-2.52-1.03-1.15-.18-2.29-.26-3.46-.14-1.13,.11-2.23,.29-3.2,.9-.87,.54-1.76,1.02-2.76,1.19-1.75,.29-3.51,.35-5.16-.49-1.43-.73-2.1-1.93-2.2-3.52-.09-1.4,.44-2.59,1.1-3.75,1.06-1.86,2.22-3.67,3.43-5.43,.9-1.31,1.87-2.58,2.93-3.77,.61-.68,1.21-1.38,1.98-1.89,1.35-.9,2.84-1.34,4.47-1.38,1.54-.04,3.05,.07,4.48,.72,.96,.44,1.73,1.08,2.44,1.87,1.06,1.16,2.04,2.38,2.96,3.65,1.39,1.92,2.74,3.88,3.9,5.95,.43,.76,.9,1.51,1.1,2.37,.38,1.61,.24,3.13-.94,4.4-.74,.8-1.74,1.14-2.79,1.35-.52,.1-1.03,.06-1.55,.07Z"/>
    <path class="cls-1" d="M57.2,32.99c-.02,2.5-.9,4.68-2.46,6.61-.94,1.16-2.06,2.06-3.53,2.45-2.16,.58-3.76-.72-4.28-2.62-.53-1.91-.23-3.76,.47-5.56,.6-1.54,1.47-2.9,2.7-4.01,1.15-1.03,2.45-1.71,4.04-1.54,.92,.09,1.62,.59,2.16,1.33,.72,1,.94,2.13,.9,3.34Z"/>
    <path class="cls-1" d="M26.62,37.48c-.02,1-.16,1.97-.64,2.88-.85,1.61-2.46,2.18-4.17,1.62-1.31-.43-2.33-1.26-3.21-2.31-.88-1.05-1.52-2.23-1.99-3.51-.49-1.33-.63-2.72-.51-4.11,.11-1.21,.56-2.31,1.54-3.11,.48-.39,1.04-.58,1.65-.63,1.32-.11,2.44,.4,3.44,1.19,2.03,1.6,3.16,3.75,3.71,6.24,.13,.57,.2,1.15,.17,1.75Z"/>
  </g>
  <g>
    <path class="cls-1" d="M9.29,76.68h-2.17v-4.48H2.17v4.48H0v-11.04H2.17v4.46H7.11v-4.46h2.17v11.04Z"/>
    <path class="cls-1" d="M12.31,68.37c.5-.87,1.19-1.56,2.05-2.08,.87-.51,1.8-.77,2.81-.77s1.95,.26,2.81,.77c.87,.52,1.55,1.21,2.07,2.08,.51,.87,.77,1.81,.77,2.81s-.26,1.96-.77,2.82c-.52,.86-1.21,1.54-2.07,2.05-.87,.51-1.8,.76-2.81,.76s-1.96-.25-2.82-.76c-.86-.5-1.54-1.19-2.05-2.05-.51-.86-.76-1.8-.76-2.82s.25-1.94,.76-2.81Zm1.95,4.58c.31,.54,.72,.97,1.25,1.28,.53,.31,1.11,.47,1.75,.47s1.18-.16,1.69-.47c.51-.31,.91-.74,1.2-1.27,.29-.53,.44-1.13,.44-1.78s-.15-1.26-.45-1.8-.71-.97-1.22-1.28-1.09-.47-1.72-.47-1.2,.16-1.72,.47c-.52,.31-.92,.74-1.22,1.28s-.45,1.14-.45,1.8,.15,1.23,.46,1.77Z"/>
    <path class="cls-1" d="M27.36,73.61c.21,.32,.49,.58,.84,.78,.35,.2,.72,.3,1.12,.3,.43,0,.83-.1,1.18-.3,.36-.2,.64-.46,.85-.78,.21-.32,.31-.65,.31-1v-6.96h2.14v7c0,.79-.2,1.5-.6,2.14-.4,.64-.94,1.13-1.63,1.48-.68,.35-1.44,.53-2.26,.53s-1.57-.18-2.25-.53c-.68-.35-1.22-.85-1.61-1.48-.4-.63-.59-1.35-.59-2.14v-7h2.17v6.96c0,.35,.11,.69,.32,1Z"/>
    <path class="cls-1" d="M39.92,67.52c-.48,0-.85,.1-1.12,.29s-.4,.48-.4,.85c0,.35,.19,.66,.58,.92,.38,.27,.9,.52,1.54,.76,.52,.19,.96,.41,1.33,.65s.68,.58,.92,1.01c.24,.43,.37,.98,.37,1.64,0,.57-.15,1.1-.44,1.58s-.73,.87-1.3,1.15c-.57,.29-1.25,.43-2.04,.43-.66,0-1.31-.1-1.96-.29-.65-.2-1.25-.49-1.81-.89l.96-1.69c.38,.28,.81,.51,1.3,.69,.49,.18,.93,.27,1.32,.27,.46,0,.86-.1,1.2-.29,.34-.2,.51-.51,.51-.95,0-.57-.54-1.06-1.61-1.48-.63-.25-1.16-.49-1.58-.72s-.78-.56-1.09-.99c-.31-.43-.46-.97-.46-1.62,0-.95,.31-1.71,.94-2.29s1.46-.9,2.5-.95c.82,0,1.5,.09,2.05,.28s1.08,.45,1.6,.79l-.82,1.67c-.96-.53-1.79-.79-2.5-.79Z"/>
    <path class="cls-1" d="M52.05,65.64v2.1h-2.69v8.94h-2.17v-8.94h-2.58v-2.1h7.44Z"/>
    <path class="cls-1" d="M53.95,68.37c.5-.87,1.19-1.56,2.05-2.08,.87-.51,1.8-.77,2.81-.77s1.95,.26,2.81,.77c.87,.52,1.55,1.21,2.07,2.08,.51,.87,.77,1.81,.77,2.81s-.26,1.96-.77,2.82c-.52,.86-1.21,1.54-2.07,2.05-.87,.51-1.8,.76-2.81,.76s-1.96-.25-2.82-.76c-.86-.5-1.54-1.19-2.05-2.05-.51-.86-.76-1.8-.76-2.82s.25-1.94,.76-2.81Zm1.95,4.58c.31,.54,.72,.97,1.25,1.28,.53,.31,1.11,.47,1.75,.47s1.18-.16,1.69-.47c.51-.31,.91-.74,1.2-1.27,.29-.53,.44-1.13,.44-1.78s-.15-1.26-.45-1.8-.71-.97-1.22-1.28-1.09-.47-1.72-.47-1.2,.16-1.72,.47c-.52,.31-.92,.74-1.22,1.28-.3,.54-.45,1.14-.45,1.8s.15,1.23,.46,1.77Z"/>
    <path class="cls-1" d="M76.68,65.64v11.49h-.06l-7.72-6.98,.04,6.52h-2.21v-11.48h.09l7.71,7.08-.04-6.65h2.19Z"/>
  </g>
  <g>
    <path class="cls-1" d="M15.81,82.94c0,2.37-1.38,4.14-3.65,4.14-1.34,0-2.17-.62-2.58-1.42h-.18v4.01c0,.14-.1,.24-.24,.24h-1.05c-.14,0-.24-.1-.24-.24v-10.47c0-.14,.1-.24,.24-.24h1.1c.14,0,.24,.1,.24,.24v.98h.13c.41-.76,1.24-1.38,2.58-1.38,2.26,0,3.65,1.76,3.65,4.13Zm-1.54,0c0-1.62-.94-2.68-2.45-2.68s-2.45,1.06-2.45,2.68,.95,2.69,2.45,2.69,2.45-1.06,2.45-2.69Z"/>
    <path class="cls-1" d="M25.91,83.33h-5.63c.06,1.53,1.13,2.44,2.83,2.44,.86,0,1.58-.23,2.08-.54,.22-.14,.34-.1,.57,.18,.24,.3,.3,.48,.06,.7-.62,.59-1.67,.96-2.85,.96-2.53,0-4.2-1.67-4.2-4.16s1.61-4.12,4.01-4.12,3.77,1.63,3.77,3.8c0,.47-.08,.73-.65,.73Zm-5.56-1.14h4.82c-.12-1.27-1-2.03-2.38-2.02-1.34,.02-2.22,.75-2.44,2.02Z"/>
    <path class="cls-1" d="M37.6,85.87c-.23,.33-1.19,1.22-2.79,1.22-1.3,0-2.98-.61-2.98-3.09v-3.66h-2.21c-.14,0-.24-.1-.24-.24v-.89c0-.14,.1-.24,.24-.24h2.21v-2.16c0-.14,.1-.24,.24-.24h1.1c.14,0,.24,.1,.24,.24v2.16h3.65c.14,0,.24,.1,.24,.24v.89c0,.14-.1,.24-.24,.24h-3.65v3.4c0,1.56,.87,1.91,1.67,1.91,.9,0,1.42-.42,1.7-.68,.19-.17,.32-.18,.62,.12,.36,.36,.37,.53,.19,.78Z"/>
    <path class="cls-1" d="M48.14,84.69c0,1.46-1.16,2.4-3.61,2.4-1.97,0-3.47-.61-3.63-2.05-.02-.16,.08-.24,.22-.24h1.06c.14,0,.21,.06,.24,.18,.17,.59,.94,.86,2.11,.86,1.31,0,2.06-.34,2.06-1.13s-.78-.98-2.19-1.15c-1.64-.2-3.36-.54-3.36-2.36,0-1.44,1.1-2.38,3.43-2.38,1.84,0,3.33,.59,3.49,2.03,.02,.16-.09,.24-.23,.24h-1.06c-.14,0-.22-.06-.24-.18-.12-.54-.94-.83-2.03-.83s-1.82,.31-1.82,1.09,.71,1.02,2.04,1.18c1.64,.2,3.51,.46,3.51,2.35Z"/>
    <path class="cls-1" d="M58.7,83.33h-5.63c.06,1.53,1.13,2.44,2.83,2.44,.86,0,1.57-.23,2.08-.54,.22-.14,.34-.1,.57,.18,.24,.3,.3,.48,.06,.7-.62,.59-1.67,.96-2.85,.96-2.53,0-4.2-1.67-4.2-4.16s1.61-4.12,4.01-4.12,3.77,1.63,3.77,3.8c0,.47-.08,.73-.65,.73Zm-5.56-1.14h4.82c-.12-1.27-1-2.03-2.38-2.02-1.34,.02-2.22,.75-2.44,2.02Z"/>
    <path class="cls-1" d="M70.38,85.87c-.23,.33-1.19,1.22-2.79,1.22-1.3,0-2.98-.61-2.98-3.09v-3.66h-2.21c-.14,0-.24-.1-.24-.24v-.89c0-.14,.1-.24,.24-.24h2.21v-2.16c0-.14,.1-.24,.24-.24h1.1c.14,0,.24,.1,.24,.24v2.16h3.65c.14,0,.24,.1,.24,.24v.89c0,.14-.1,.24-.24,.24h-3.65v3.4c0,1.56,.87,1.91,1.67,1.91,.9,0,1.42-.42,1.7-.68,.19-.17,.32-.18,.62,.12,.36,.36,.37,.53,.19,.78Z"/>
  </g>
</svg>